<svg width="36" height="36" viewBox="0 0 36 36" fill="none" xmlns="http://www.w3.org/2000/svg" role="img" aria-label="Don Dog">
  <rect width="36" height="36" rx="10" fill="#23324F"/>
  <circle cx="13" cy="15" r="2.25" fill="#C4FF4D"/>
  <circle cx="23" cy="15" r="2.25" fill="#C4FF4D"/>
  <ellipse cx="18" cy="19.5" rx="3.25" ry="2.25" fill="#C4FF4D"/>
  <path d="M11 10.5C11 8.5 12.5 7 14.5 7C15.2 7 15.8 7.2 16.3 7.6C16.8 7.2 17.4 7 18.1 7C19.2 7 20.2 7.5 20.8 8.3C21.4 7.5 22.4 7 23.5 7C25.5 7 27 8.5 27 10.5C27 12.8 25.2 14.5 23 14.8V15.5C23 16.3 22.3 17 21.5 17H14.5C13.7 17 13 16.3 13 15.5V14.8C10.8 14.5 9 12.8 9 10.5C9 8.5 10.5 7 12.5 7" fill="#C4FF4D"/>
  <path d="M10 22C10 25.5 13.5 28.5 18 28.5C22.5 28.5 26 25.5 26 22" stroke="#C4FF4D" stroke-width="2" stroke-linecap="round"/>
</svg>
